<?xml version="1.0" encoding="utf-8"?>
<!-- Generator: $$$/GeneralStr/196=Adobe Illustrator 27.6.0, SVG Export Plug-In . SVG Version: 6.00 Build 0)  -->
<svg version="1.1" id="Ebene_1" xmlns="http://www.w3.org/2000/svg" xmlns:xlink="http://www.w3.org/1999/xlink" x="0px" y="0px"
	 viewBox="0 0 512 512" style="enable-background:new 0 0 512 512;" xml:space="preserve">
<style type="text/css">
	.st0{fill:#33CCFF;}
</style>
<g>
	<path class="st0" d="M503.2,256L503.2,256c0,136.5-110.7,247.2-247.2,247.2h0C119.5,503.2,8.8,392.5,8.8,256v0
		C8.8,119.5,119.5,8.8,256,8.8h0C392.5,8.8,503.2,119.5,503.2,256z"/>
	<g>
		<path d="M362.4,312v-51.7l-82.9,58c-1-2.9-2.1-5.7-3.4-8.4c-5.7-11.8-13.7-20.9-24-27.2c-10.3-6.3-22.2-9.5-35.7-9.5
			c-13.7,0-25.6,3.2-35.8,9.5c-10.2,6.3-18.2,15.4-23.9,27.2c-5.7,11.8-8.6,26.2-8.6,43.2v28.2v17.1v26.6h214.2v-43.8h-77.7v-19.1
			L362.4,312z M185.5,381.2v-25.4c0-7.8,1.3-14.4,3.8-20c2.6-5.6,6.2-9.9,11-13c4.8-3.1,10.6-4.6,17.3-4.6c6.7,0,12.5,1.5,17.3,4.6
			c4.8,3.1,8.5,7.4,11,13c2.6,5.6,3.8,12.3,3.8,20v25.4H185.5z"/>
		<path d="M311.2,201.7c5.9-5.4,10.5-11.4,13.8-17.9c3.3-6.5,4.9-13.6,4.9-21.1c0-8.8-2.2-15.9-6.7-21.4c-4.5-5.5-10.6-8.3-18.4-8.3
			c-6.7,0-12.1,1.7-16.2,5.1c-4.1,3.4-7.7,8.4-10.9,15c-3.2,6.6-6.6,14.7-10.3,24.3c-1.8,5.1-4.3,11-7.5,17.6
			c-3.2,6.6-7.2,12.9-12.2,18.8c-5,5.9-11.1,10.8-18.4,14.7c-7.2,3.9-16,5.8-26.2,5.8c-12.2,0-22.8-3.1-31.7-9.3
			c-8.9-6.2-15.7-14.7-20.5-25.4c-4.8-10.7-7.2-22.7-7.2-36c0-13.7,2.3-25.5,6.9-35.4c4.6-9.9,10.4-18.2,17.4-24.8
			c7-6.6,14.3-11.8,21.9-15.5l19,34.3c-5.1,2.9-9.7,6.3-13.9,10.3c-4.2,4-7.5,8.5-10.1,13.6c-2.5,5.1-3.8,10.9-3.8,17.4
			c0,8.6,2,15,6,19.3c4,4.3,8.6,6.4,13.9,6.4c5.3,0,9.9-1.7,13.9-5.2c4-3.5,7.8-8.8,11.3-15.9c3.6-7.1,7.2-16.1,10.9-26.9
			c2.4-6.9,5.5-13.6,9.2-20c3.7-6.4,8.1-12.2,13.3-17.4c5.2-5.2,11.3-9.3,18.4-12.2c7-3,15.1-4.4,24.3-4.4c10.4,0,19.7,2,27.9,6.1
			c8.2,4.1,15,9.7,20.7,16.8c5.6,7.1,9.9,15.2,12.9,24c3,8.9,4.4,18.2,4.4,28c0,13.1-2.5,25.2-7.5,36.6c-5,11.3-11.8,21.2-20.4,29.5
			c-8.6,8.4-17.9,14.9-27.9,19.6l-22-31.2C298.4,212,305.3,207.1,311.2,201.7z"/>
	</g>
</g>
</svg>
