<?xml version="1.0" encoding="utf-8"?>
<!-- Generator: $$$/GeneralStr/196=Adobe Illustrator 27.6.0, SVG Export Plug-In . SVG Version: 6.00 Build 0)  -->
<svg version="1.1" id="Ebene_1" xmlns="http://www.w3.org/2000/svg" xmlns:xlink="http://www.w3.org/1999/xlink" x="0px" y="0px"
	 viewBox="0 0 512 512" style="enable-background:new 0 0 512 512;" xml:space="preserve">
<style type="text/css">
	.st0{fill:#33CCFF;}
</style>
<g>
	<path class="st0" d="M503.2,256L503.2,256c0,136.5-110.7,247.2-247.2,247.2h0C119.5,503.2,8.8,392.5,8.8,256v0
		C8.8,119.5,119.5,8.8,256,8.8h0C392.5,8.8,503.2,119.5,503.2,256z"/>
	<g>
		<path d="M351.7,306.4v-46.6L277.1,312c-0.9-2.6-1.9-5.2-3.1-7.6c-5.1-10.6-12.3-18.8-21.6-24.5c-9.3-5.7-20-8.5-32.1-8.5
			c-12.3,0-23,2.8-32.2,8.5c-9.2,5.7-16.3,13.9-21.5,24.5c-5.1,10.7-7.7,23.6-7.7,38.8v25.3v15.4v24h192.8v-39.4h-70v-17.2
			L351.7,306.4z M192.5,368.7v-22.9c0-7,1.1-13,3.4-18c2.3-5,5.6-9,9.9-11.7c4.3-2.8,9.5-4.1,15.6-4.1c6.1,0,11.3,1.4,15.6,4.1
			c4.3,2.8,7.6,6.7,9.9,11.7c2.3,5.1,3.4,11.1,3.4,18v22.9H192.5z"/>
		<path d="M305.7,207.1c5.3-4.9,9.5-10.2,12.4-16.1c2.9-5.9,4.4-12.2,4.4-19c0-7.9-2-14.3-6.1-19.3c-4-5-9.5-7.4-16.5-7.4
			c-6.1,0-10.9,1.5-14.6,4.5c-3.7,3-6.9,7.5-9.8,13.5c-2.8,6-5.9,13.3-9.2,21.9c-1.7,4.6-3.9,9.9-6.7,15.8c-2.8,6-6.5,11.6-11,16.9
			c-4.5,5.3-10,9.7-16.5,13.2c-6.5,3.5-14.4,5.2-23.6,5.2c-11,0-20.5-2.8-28.5-8.4c-8-5.6-14.1-13.2-18.5-22.9
			c-4.3-9.6-6.5-20.4-6.5-32.4c0-12.3,2.1-22.9,6.2-31.8c4.1-8.9,9.4-16.3,15.7-22.3c6.3-6,12.9-10.6,19.7-13.9l17.1,30.9
			c-4.6,2.6-8.8,5.6-12.5,9.2c-3.8,3.6-6.8,7.7-9.1,12.3c-2.3,4.6-3.4,9.8-3.4,15.7c0,7.7,1.8,13.5,5.4,17.4
			c3.6,3.9,7.8,5.8,12.5,5.8c4.8,0,9-1.6,12.5-4.7c3.6-3.1,7-7.9,10.2-14.3c3.2-6.4,6.5-14.5,9.8-24.2c2.2-6.2,5-12.3,8.3-18
			c3.3-5.8,7.3-11,12-15.7c4.7-4.7,10.2-8.4,16.5-11c6.3-2.7,13.6-4,21.9-4c9.4,0,17.7,1.8,25.1,5.5c7.3,3.7,13.5,8.7,18.6,15.2
			c5.1,6.4,8.9,13.6,11.6,21.6c2.7,8,4,16.4,4,25.2c0,11.8-2.3,22.7-6.7,32.9c-4.5,10.2-10.6,19.1-18.3,26.6
			c-7.7,7.5-16.1,13.4-25.1,17.6L287,220.5C294.2,216.4,300.4,212,305.7,207.1z"/>
	</g>
</g>
</svg>
